# xmcd
#
# Track frame offsets: 
#        150
#        12055
#        26647
#        39357
#        52507
#        60590
#        72095
#        83390
#        97675
#        107552
#        122615
#        135377
#        147632
#        160592
#        174632
#        186802
#        198727
#        212135
#        223350
#        235400
#        249392
#        262622
#        276322
#        290787
#        305905
#        318235
#
# Disc length: 4431 seconds
#
# Revision: 10
# Processed by: cddbd v1.5.2PL0 Copyright (c) Steve Scherf et al.
# Submitted via: ExactAudioCopy v0.95a4
#
DISCID=6e114d1a
DTITLE=Merle Haggard - Down Every Road [CD3]
DYEAR=1996
DGENRE=Country
TTITLE0=Right Or Wrong
TTITLE1=Trouble In Mind
TTITLE2=Stay A Little Longer
TTITLE3=The Farmer's Daughter
TTITLE4=Tulare Dust
TTITLE5=Carolyn
TTITLE6=Someday We'll Look Back
TTITLE7=Daddy Frank (The Guitar Man)
TTITLE8=Grandma Harp
TTITLE9=It's Not Love (But It's Not Bad)
TTITLE10=I Wonder If They Ever Think Of Me
TTITLE11=If We Make It Through December
TTITLE12=The Emptiest Arms In The World
TTITLE13=Everybody's Had The Blues (Live Rehearsal)
TTITLE14=Things Aren't Funny Anymore
TTITLE15=Honky Tonk Night Time Man
TTITLE16=Holding Things Together
TTITLE17=Here In Frisco
TTITLE18=Kentucky Gambler
TTITLE19=Always Wanting You
TTITLE20=Living With The Shades Pulled Down
TTITLE21=Running Kind
TTITLE22=It's All In The Movies
TTITLE23=The Way It Was In '51
TTITLE24=I Never Go Around Mirrors
TTITLE25=What Have You Got Planned Tonight Diana
EXTD=Capitol 35714-2-0 YEAR: 1996
EXTT0=
EXTT1=
EXTT2=
EXTT3=
EXTT4=
EXTT5=
EXTT6=
EXTT7=
EXTT8=
EXTT9=
EXTT10=
EXTT11=
EXTT12=
EXTT13=
EXTT14=
EXTT15=
EXTT16=
EXTT17=
EXTT18=
EXTT19=
EXTT20=
EXTT21=
EXTT22=
EXTT23=
EXTT24=
EXTT25=
PLAYORDER=
